<?xml version="1.0" standalone="no"?>
<!DOCTYPE svg PUBLIC "-//W3C//DTD SVG 20010904//EN" "http://www.w3.org/TR/2001/REC-SVG-20010904/DTD/svg10.dtd">
<svg version="1.0" xmlns="http://www.w3.org/2000/svg"
	width="512.000000pt" height="512.000000pt" viewBox="0 0 512.000000 512.000000"
	preserveAspectRatio="xMidYMid meet">

	<g transform="translate(0.000000,512.000000) scale(0.100000,-0.100000)"
		fill="#000000" stroke="none">
		<path
			d="M415 5110 c-197 -41 -349 -188 -400 -385 -13 -52 -15 -307 -15 -2165
0 -2303 -4 -2154 57 -2280 38 -78 151 -189 233 -228 36 -16 92 -35 124 -41 84
-15 4208 -15 4292 0 97 18 180 64 260 143 76 76 114 142 139 242 14 54 15 300
13 2190 l-3 2129 -23 59 c-30 81 -73 144 -135 203 -63 59 -106 86 -183 116
l-59 22 -2130 1 c-1172 1 -2148 -2 -2170 -6z m1302 -1016 c15 -11 36 -33 47
-48 21 -27 21 -34 26 -1314 5 -1213 6 -1289 23 -1327 21 -47 60 -90 102 -113
27 -15 110 -17 840 -22 900 -6 855 -2 891 -72 21 -40 14 -120 -12 -149 -51
-57 -8 -54 -899 -54 -753 0 -825 1 -885 18 -186 50 -305 158 -363 327 l-22 65
-3 1280 c-2 942 0 1291 8 1320 14 47 43 82 85 101 41 20 129 13 162 -12z" />
	</g>
</svg>